<?xml version="1.0" standalone="no"?>
<!DOCTYPE svg PUBLIC "-//W3C//DTD SVG 20010904//EN"
 "http://www.w3.org/TR/2001/REC-SVG-20010904/DTD/svg10.dtd">
<svg version="1.0" xmlns="http://www.w3.org/2000/svg"
 width="152.000000pt" height="62.000000pt" viewBox="0 0 152.000000 62.000000"
 preserveAspectRatio="xMidYMid meet">

<g transform="translate(0.000000,62.000000) scale(0.100000,-0.080000)"
fill="#000000" stroke="#000000" stroke-width="20">
<path d="M186 545 c-20 -21 -31 -64 -55 -215 -24 -152 -32 -250 -21 -250 4 0
11 24 15 53 11 88 8 85 78 82 l62 -2 8 -64 c8 -66 12 -77 24 -65 8 8 -20 243
-44 373 -17 91 -37 117 -67 88z m55 -169 c10 -66 19 -124 19 -128 0 -5 -27 -8
-61 -8 l-61 0 6 28 c3 15 13 70 22 122 9 52 21 106 26 120 9 23 10 24 20 6 6
-10 19 -73 29 -140z"/>
<path d="M541 541 c-20 -20 -43 -125 -66 -300 -17 -131 -18 -161 -7 -161 5 0
13 30 18 67 l9 68 62 0 c69 1 63 8 79 -93 4 -27 10 -40 15 -35 9 9 -5 153 -31
318 -22 143 -41 174 -79 136z m54 -150 c8 -53 17 -108 20 -123 4 -28 4 -28
-55 -28 -43 0 -60 4 -60 13 0 29 39 224 50 252 l12 30 9 -24 c5 -13 16 -67 24
-120z"/>
<path d="M302 513 c10 -79 59 -399 63 -410 12 -33 25 -4 44 100 26 140 53 339
46 346 -14 13 -25 -25 -40 -143 -9 -72 -21 -153 -28 -180 l-11 -51 -12 95
c-10 85 -25 175 -40 253 -8 41 -27 33 -22 -10z"/>
<path d="M898 543 c-4 -7 -2 -414 1 -451 0 -7 6 -10 11 -7 6 4 10 12 9 18 -1
7 -1 42 0 79 l1 67 37 3 c52 4 56 28 4 28 l-41 0 0 125 0 125 55 0 c30 0 55 5
55 10 0 12 -127 14 -132 3z"/>
<path d="M1057 455 c-10 -149 -8 -278 4 -314 13 -37 60 -65 95 -57 44 11 52
47 54 236 3 225 2 239 -10 220 -5 -8 -10 -96 -10 -195 0 -198 -7 -228 -52
-233 -20 -2 -31 4 -44 23 -15 24 -17 50 -16 194 3 200 -11 281 -21 126z"/>
<path d="M1270 322 c0 -126 3 -232 8 -236 4 -4 12 75 17 176 l10 183 27 -85
c15 -47 36 -116 47 -155 27 -97 39 -127 51 -120 14 8 14 465 0 465 -12 0 -12
13 -10 -200 1 -96 -2 -172 -5 -168 -4 3 -17 46 -31 95 -45 163 -85 273 -100
273 -12 0 -14 -38 -14 -228z"/>
<path d="M763 148 c2 -7 12 -13 22 -13 10 0 20 6 23 13 2 7 -6 12 -23 12 -17
0 -25 -5 -22 -12z"/>
</g>
</svg>
